<svg width="119" height="25" viewBox="0 0 119 25" fill="none" xmlns="http://www.w3.org/2000/svg">
<g clip-path="url(#clip0_135_243)">
<path fill-rule="evenodd" clip-rule="evenodd" d="M25.8555 24.2858H31.805L25.7884 15.4138L26.7052 12.267H31.6572L32.0546 10.6278L33.1425 15.441L34.3898 15.4937L35.4188 12.267H40.9239V10.9892H34.4709L33.8798 12.8426L32.7074 7.65559L31.448 7.64603L30.6376 10.9892H25.7323L24.8473 14.0262L23.5026 12.0433L31.2167 0H25.6034L21.9548 6.13869L21.3253 1.28495L20.0623 1.19162L18.7033 5.92054L15.1161 0H9.3683L16.4979 10.9892H12.6456L12.1164 12.7716L10.9318 7.65243L9.67775 7.62787L8.75666 10.9892H0V12.267H9.74595L10.2488 10.4317L11.4087 15.4441L12.659 15.4816L13.6136 12.267H16.6691L8.84732 24.2858H14.4271L20.1413 15.0998L22.2545 18.497L22.6689 21.6918L23.9312 21.7873L24.0493 21.3822L25.8555 24.2858ZM20.885 7.93872L21.9548 6.13869L23.5538 18.4656L24.8473 14.0262L25.7884 15.4138L24.0493 21.3822L22.2545 18.497L20.885 7.93872ZM20.885 7.93872L20.4102 8.73759L19.6149 7.425L20.4441 4.53963L20.885 7.93872ZM19.6149 7.425L18.7033 5.92054L17.2467 10.9892H16.4979L16.9985 11.7609L16.6691 12.267H18.2234L19.6149 7.425Z" fill="white"/>
</g>
<path d="M51.4644 19.5964L56.7943 11.5364L51.6173 3.65357H54.8392L58.4216 9.26678L61.9713 3.65357H65.2151L60.0381 11.5364L65.3461 19.5964H62.1242L58.4216 13.8061L54.7082 19.5964H51.4644Z" fill="white"/>
<path d="M66.2149 19.5964V3.65357H72.4295C73.3615 3.65357 74.1734 3.77166 74.8651 4.00785C75.5641 4.24405 76.143 4.58726 76.6017 5.0375C77.0677 5.48035 77.4172 6.02285 77.6502 6.665C77.8832 7.30714 77.9997 8.03416 77.9997 8.84607C77.9997 9.65797 77.8832 10.385 77.6502 11.0271C77.4172 11.6693 77.0677 12.2118 76.6017 12.6546C76.1357 13.0975 75.5532 13.437 74.8542 13.6732C74.1625 13.9094 73.3542 14.0275 72.4295 14.0275H68.869V19.5964H66.2149ZM68.869 11.5364H72.4077C73.3615 11.5364 74.0897 11.3076 74.5921 10.85C75.0945 10.385 75.3457 9.71702 75.3457 8.84607C75.3457 7.97512 75.0945 7.31083 74.5921 6.85321C74.0897 6.38821 73.3615 6.15571 72.4077 6.15571H68.869V11.5364Z" fill="white"/>
<path d="M81.7164 14.2157C81.7164 15.2417 81.9531 16.0351 82.4263 16.5961C82.8996 17.1496 83.5841 17.4264 84.4797 17.4264C85.368 17.4264 86.0524 17.1496 86.533 16.5961C87.0135 16.0425 87.2538 15.249 87.2538 14.2157V7.63928H89.8751V19.5964H87.2538V18.0354C87.1082 18.3085 86.9298 18.5594 86.7187 18.7882C86.5148 19.017 86.2709 19.2163 85.9869 19.3861C85.7029 19.5558 85.3789 19.6887 85.0148 19.7846C84.6508 19.8806 84.2394 19.9286 83.7807 19.9286C83.0816 19.9286 82.4409 19.8252 81.8584 19.6186C81.2832 19.4119 80.7917 19.0982 80.3839 18.6775C79.9762 18.2568 79.6594 17.7254 79.4337 17.0832C79.208 16.4337 79.0951 15.6661 79.0951 14.7804V7.63928H81.7164V14.2157Z" fill="white"/>
<path d="M92.2894 19.5964V3.32143H94.9215V19.5964H92.2894Z" fill="white"/>
<path d="M101.907 19.9286C100.436 19.9286 99.249 19.6038 98.3461 18.9543C97.4432 18.2974 96.8825 17.3563 96.6641 16.1311L99.3618 15.6993C99.5074 16.334 99.7987 16.8138 100.236 17.1386C100.68 17.456 101.255 17.6146 101.961 17.6146C102.602 17.6146 103.108 17.4892 103.479 17.2382C103.858 16.9873 104.047 16.6367 104.047 16.1864C104.047 16.0536 104.033 15.9355 104.004 15.8321C103.975 15.7214 103.92 15.6218 103.84 15.5332C103.767 15.4446 103.665 15.3635 103.534 15.2896C103.41 15.2085 103.246 15.1309 103.043 15.0571C102.642 14.9095 101.987 14.7139 101.077 14.4704C100.392 14.2932 99.7987 14.1013 99.2963 13.8946C98.7939 13.688 98.3752 13.4481 98.0403 13.175C97.7053 12.9019 97.4541 12.5882 97.2867 12.2339C97.1265 11.8723 97.0464 11.4479 97.0464 10.9607C97.0464 10.4071 97.1556 9.90893 97.374 9.46607C97.5997 9.01583 97.9165 8.63202 98.3242 8.31464C98.732 7.98988 99.2235 7.74262 99.7987 7.57285C100.374 7.39571 101.011 7.30714 101.71 7.30714C102.387 7.30714 103.01 7.39202 103.578 7.56178C104.153 7.72416 104.655 7.96036 105.085 8.27036C105.515 8.57297 105.864 8.94202 106.133 9.3775C106.41 9.81297 106.585 10.3001 106.658 10.8389L103.971 11.3261C103.898 10.7946 103.654 10.3776 103.239 10.075C102.824 9.765 102.285 9.61 101.623 9.61C101.339 9.61 101.077 9.63952 100.836 9.69857C100.596 9.75762 100.388 9.8425 100.214 9.95321C100.046 10.0639 99.9116 10.1968 99.8096 10.3518C99.715 10.4994 99.6676 10.6618 99.6676 10.8389C99.6676 11.0013 99.704 11.1415 99.7768 11.2596C99.8497 11.3704 99.9516 11.4737 100.083 11.5696C100.214 11.6582 100.374 11.7394 100.563 11.8132C100.753 11.887 100.964 11.9608 101.197 12.0346C101.459 12.1158 101.768 12.2118 102.125 12.3225C102.482 12.4258 102.886 12.5402 103.337 12.6657C103.956 12.8355 104.481 13.0274 104.91 13.2414C105.34 13.4555 105.689 13.699 105.959 13.9721C106.235 14.2379 106.436 14.5442 106.559 14.8911C106.683 15.238 106.745 15.6292 106.745 16.0646C106.745 16.6625 106.632 17.2013 106.406 17.6811C106.188 18.1608 105.868 18.5668 105.445 18.8989C105.03 19.2311 104.524 19.4857 103.927 19.6629C103.33 19.84 102.657 19.9286 101.907 19.9286Z" fill="white"/>
<path d="M113.495 17.4707C114.172 17.4707 114.733 17.3305 115.177 17.05C115.621 16.7621 115.974 16.334 116.237 15.7657L118.836 16.5186C118.377 17.611 117.686 18.4524 116.761 19.0429C115.836 19.6333 114.748 19.9286 113.495 19.9286C112.614 19.9286 111.81 19.7773 111.081 19.4746C110.361 19.1646 109.742 18.7329 109.225 18.1793C108.715 17.6183 108.318 16.9504 108.034 16.1754C107.75 15.4004 107.608 14.5479 107.608 13.6179C107.608 12.6731 107.75 11.8132 108.034 11.0382C108.325 10.2632 108.73 9.59893 109.247 9.04535C109.763 8.49178 110.379 8.06369 111.092 7.76107C111.813 7.45845 112.607 7.30714 113.473 7.30714C114.413 7.30714 115.239 7.47321 115.953 7.80536C116.673 8.1375 117.27 8.60988 117.744 9.2225C118.217 9.83512 118.559 10.5769 118.77 11.4479C118.982 12.3114 119.047 13.282 118.967 14.3596H110.437C110.554 15.3487 110.874 16.1163 111.398 16.6625C111.93 17.2013 112.629 17.4707 113.495 17.4707ZM116.291 12.3446C116.226 11.4958 115.945 10.8389 115.45 10.3739C114.962 9.90893 114.303 9.67643 113.473 9.67643C112.672 9.67643 112.017 9.90893 111.507 10.3739C111.005 10.8389 110.67 11.4958 110.503 12.3446H116.291Z" fill="white"/>
<defs>
<clipPath id="clip0_135_243">
<rect width="40.9643" height="24.3571" fill="white"/>
</clipPath>
</defs>
</svg>
