<?xml version="1.0" encoding="utf-8"?><svg viewBox="0 0 41 25" xmlns="http://www.w3.org/2000/svg" xmlns:xlink="http://www.w3.org/1999/xlink"><style>:root>svg{display:none}:root>svg:target{display:block}</style><svg viewBox="0 0 19 19" id="check" xmlns="http://www.w3.org/2000/svg"><path d="M15.833 4.75l-8.708 8.708L3.167 9.5"/></svg><svg viewBox="0 0 19 20" id="check-services" xmlns="http://www.w3.org/2000/svg"><path d="M15.833 5.25l-8.708 8.708L3.167 10"/></svg><svg viewBox="0 0 41 25" id="favicon" xmlns="http://www.w3.org/2000/svg"><g clip-path="url(#cclip0_135_244)"><path fill-rule="evenodd" clip-rule="evenodd" d="M25.855 24.286h5.95l-6.017-8.872.917-3.147h4.952l.398-1.64 1.087 4.814 1.248.053 1.029-3.227h5.505v-1.278H34.47l-.591 1.854-1.173-5.187-1.259-.01-.81 3.343h-4.906l-.885 3.037-1.344-1.983L31.217 0h-5.614l-3.648 6.139-.63-4.854-1.263-.093-1.359 4.729L15.116 0H9.368l7.13 10.99h-3.852l-.53 1.782-1.184-5.12-1.254-.024-.921 3.361H0v1.278h9.746l.503-1.835 1.16 5.012 1.25.038.955-3.215h3.055L8.847 24.286h5.58l5.714-9.186 2.114 3.397.414 3.195 1.262.095.118-.405 1.806 2.904zm-4.97-16.347l1.07-1.8 1.599 12.327 1.293-4.44.941 1.388-1.739 5.968-1.794-2.885-1.37-10.558zm0 0l-.475.799-.795-1.313.83-2.885.44 3.399zm-1.27-.514l-.912-1.504-1.456 5.068h-.75l.502.772-.33.506h1.554l1.392-4.842z"/></g><defs><clipPath id="cclip0_135_244"><path d="M0 0h40.964v24.357H0z"/></clipPath></defs></svg></svg>