<svg width="41" height="25" viewBox="0 0 41 25" fill="none" xmlns="http://www.w3.org/2000/svg">
<g clip-path="url(#clip0_135_244)">
<path fill-rule="evenodd" clip-rule="evenodd" d="M25.8555 24.2858H31.805L25.7884 15.4138L26.7052 12.267H31.6572L32.0546 10.6278L33.1425 15.441L34.3898 15.4937L35.4188 12.267H40.9239V10.9892H34.4709L33.8798 12.8426L32.7074 7.65559L31.448 7.64603L30.6376 10.9892H25.7323L24.8473 14.0262L23.5026 12.0433L31.2167 0H25.6034L21.9548 6.13869L21.3253 1.28495L20.0623 1.19162L18.7033 5.92054L15.1161 0H9.3683L16.4979 10.9892H12.6456L12.1164 12.7716L10.9318 7.65243L9.67775 7.62787L8.75666 10.9892H0V12.267H9.74595L10.2488 10.4317L11.4087 15.4441L12.659 15.4816L13.6136 12.267H16.6691L8.84732 24.2858H14.4271L20.1413 15.0998L22.2545 18.497L22.6689 21.6918L23.9312 21.7873L24.0493 21.3822L25.8555 24.2858ZM20.885 7.93872L21.9548 6.13869L23.5538 18.4656L24.8473 14.0262L25.7884 15.4138L24.0493 21.3822L22.2545 18.497L20.885 7.93872ZM20.885 7.93872L20.4102 8.73759L19.6149 7.425L20.4441 4.53963L20.885 7.93872ZM19.6149 7.425L18.7033 5.92054L17.2467 10.9892H16.4979L16.9985 11.7609L16.6691 12.267H18.2234L19.6149 7.425Z" fill="white"/>
</g>
<defs>
<clipPath id="clip0_135_244">
<rect width="40.9643" height="24.3571" fill="white"/>
</clipPath>
</defs>
</svg>
